<svg viewBox="0 0 283.46 38.99" id="hyundai" xmlns="http://www.w3.org/2000/svg"><path fill="#002b5f" d="M108.87 5.5v10.66H96.78V5.5h-6.66v27.98h6.66V22.23h12.09v11.25h6.66V5.5h-6.66zM139.95 5.5l-6.97 11.08-6.96-11.08h-7.86l11.5 18.29v9.69h6.65v-9.69l11.5-18.29h-7.86zM169.24 5.5V26a1.38 1.38 0 0 1-1.42 1.41h-10.67V5.5h-6.66v28h19.68a5.31 5.31 0 0 0 5.72-5.72V5.5h-6.65zM201.75 5.5h-19.69v28h6.66V11.56h10.68a1.38 1.38 0 0 1 1.41 1.4v20.52h6.65V11.23A5.69 5.69 0 0 0 205.94 7a5.68 5.68 0 0 0-4.19-1.5zM233.33 5.5h-19.69v28h19.68a5.32 5.32 0 0 0 5.68-5.73V11.23A5.67 5.67 0 0 0 237.5 7a5.67 5.67 0 0 0-4.17-1.5zm-.94 7.5v13a1.41 1.41 0 0 1-1.39 1.42h-10.71V11.56h10.63a1.4 1.4 0 0 1 1.47 1.44zM250.65 5.5a5.64 5.64 0 0 0-4.18 1.5 5.65 5.65 0 0 0-1.54 4.18v22.3h6.64v-8.65h12.1v8.66h6.65V5.5zm13 6.06v7.21h-12.1V13a1.41 1.41 0 0 1 1.45-1.44zM276.81 5.5h6.66v27.98h-6.66zM38.07 39c21 0 38.07-8.73 38.07-19.49S59.09 0 38.07 0 0 8.73 0 19.49 17 39 38.07 39zm7.16-9.56C44.6 30.89 43.51 34 41 35.29a6.36 6.36 0 0 1-2.54.58h-.38a66.23 66.23 0 0 1-19-2.64l-.21-.08c-.5-.17-.76-.4-.76-.69a.84.84 0 0 1 .31-.62c.08-.08.19-.18.34-.31C20 30.48 23.79 27.72 31 25a60.19 60.19 0 0 1 9-2.85c1.85-.43 9-1.53 5.23 7.27zM64.47 9.77a.77.77 0 0 1 .64-.46 1.32 1.32 0 0 1 .79.26c4.47 2.76 7.1 6.19 7.1 9.91 0 6.72-8.64 12.5-21 15-.79.15-1.32.15-1.5 0a.48.48 0 0 1 0-.6 3.14 3.14 0 0 1 .33-.46c6.73-7.93 11.86-19.63 13.31-23 .13-.27.24-.5.33-.65zM31 9.52c.63-1.47 1.73-4.61 4.24-5.86a6.32 6.32 0 0 1 2.54-.58h.38a66.14 66.14 0 0 1 19 2.64l.21.08c.5.17.77.4.77.69a.87.87 0 0 1-.31.62l-.35.3c-1.21 1.06-5.02 3.81-12.19 6.59a60.13 60.13 0 0 1-9 2.86c-1.89.37-9.06 1.46-5.29-7.34zm-6.9-5.06c.8-.15 1.32-.15 1.51 0a.5.5 0 0 1 0 .6 3.64 3.64 0 0 1-.33.46C18.55 13.5 13.43 25.21 12 28.59c-.11.23-.22.46-.31.61a.76.76 0 0 1-.64.46 1.37 1.37 0 0 1-.8-.26c-4.47-2.75-7.12-6.19-7.12-9.91C3.11 12.77 11.75 7 24.11 4.46z"></path></svg>