<?xml version="1.0" encoding="utf-8"?>
<!-- Generator: Adobe Illustrator 21.1.0, SVG Export Plug-In . SVG Version: 6.00 Build 0)  -->
<svg version="1.1" id="Layer_1" xmlns="http://www.w3.org/2000/svg" xmlns:xlink="http://www.w3.org/1999/xlink" x="0px" y="0px"
	 viewBox="0 0 191 34.6" style="enable-background:new 0 0 191 34.6;" xml:space="preserve">
<style type="text/css">
	.st0{clip-path:url(#SVGID_2_);fill:#FFD400;}
	.st1{clip-path:url(#SVGID_2_);}
	.st2{clip-path:url(#SVGID_4_);fill:#FFC20E;}
	.st3{fill:#FFC20E;}
	.st4{clip-path:url(#SVGID_6_);fill:#FFC20E;}
	.st5{fill:#FFFFFF;}
	.st6{fill:#FFD400;}
	.st7{fill:#231F20;}
	.st8{fill:#FFD300;}
</style>
<g>
	<defs>
		<rect id="SVGID_1_" x="75.1" width="115.8" height="34.6"/>
	</defs>
	<clipPath id="SVGID_2_">
		<use xlink:href="#SVGID_1_"  style="overflow:visible;"/>
	</clipPath>
	<rect x="-54.1" y="-90.4" class="st0" width="279.5" height="215.6"/>
	<g class="st1">
		<g>
			<g>
				<defs>
					<rect id="SVGID_3_" x="-18.1" y="152.6" width="215.6" height="279.5"/>
				</defs>
				<clipPath id="SVGID_4_">
					<use xlink:href="#SVGID_3_"  style="overflow:visible;"/>
				</clipPath>
				
					<rect x="30.6" y="148.9" transform="matrix(0.7071 -0.7071 0.7071 0.7071 -42.1245 203.9903)" class="st2" width="389.2" height="8"/>
			</g>
			<polygon class="st3" points="134.3,125.1 145.7,125.1 225.4,45.3 225.4,34 			"/>
			<polygon class="st3" points="111.8,125.1 123,125.1 225.4,22.7 225.4,11.4 			"/>
			<polygon class="st3" points="89.1,125.1 100.4,125.1 225.4,0.1 225.4,-11.2 			"/>
			<polygon class="st3" points="66.6,125.1 77.9,125.1 225.4,-22.4 225.4,-33.7 			"/>
			<polygon class="st3" points="44,125.1 55.2,125.1 225.4,-45.1 225.4,-56.3 			"/>
			<polygon class="st3" points="21.3,125.1 32.7,125.1 225.4,-67.6 225.4,-79 			"/>
			<polygon class="st3" points="214.5,-90.4 -1.2,125.1 10.2,125.1 225.4,-90.1 225.4,-90.4 			"/>
			<polygon class="st3" points="191.8,-90.4 -23.7,125.1 -12.5,125.1 203.1,-90.4 			"/>
			<polygon class="st3" points="169.2,-90.4 -46.4,125.1 -35.1,125.1 180.5,-90.4 			"/>
			<polygon class="st3" points="146.7,-90.4 -54.1,110.2 -54.1,121.4 157.9,-90.4 			"/>
			<polygon class="st3" points="124,-90.4 -54.1,87.6 -54.1,98.9 135.4,-90.4 			"/>
			<polygon class="st3" points="101.5,-90.4 -54.1,65 -54.1,76.4 112.8,-90.4 			"/>
			<polygon class="st3" points="79,-90.4 -54.1,42.5 -54.1,53.7 90.1,-90.4 			"/>
			<polygon class="st3" points="56.3,-90.4 -54.1,19.9 -54.1,31.2 67.6,-90.4 			"/>
			<polygon class="st3" points="33.7,-90.4 -54.1,-2.7 -54.1,8.6 45.1,-90.4 			"/>
			<g>
				<g>
					<g>
						<defs>
							<rect id="SVGID_5_" x="-18.1" y="-389.4" width="215.6" height="279.5"/>
						</defs>
						<clipPath id="SVGID_6_">
							<use xlink:href="#SVGID_5_"  style="overflow:visible;"/>
						</clipPath>
						
							<rect x="-240.4" y="-122.1" transform="matrix(0.7071 -0.7071 0.7071 0.7071 70.1162 -67.0123)" class="st4" width="389.2" height="8"/>
					</g>
				</g>
			</g>
			<rect x="-0.6" class="st5" width="75.7" height="34.7"/>
			<g>
				<path d="M52.8,15.2l0.1,0.8l0,0c0.3-0.5,0.9-0.8,1.7-0.8l-0.1,1.6c-0.8,0-1.2,0.1-1.6,0.5v3.5h-1.7v-5.5L52.8,15.2L52.8,15.2z"
					/>
				<g>
					<circle class="st6" cx="14" cy="17.1" r="9"/>
					<path class="st5" d="M14,8c5,0,9,4.1,9,9c0,5-4.1,9-9,9c-5,0-9-4.1-9-9C5.1,12.1,9.1,8,14,8 M14,7.4c-5.3,0-9.6,4.3-9.6,9.6
						s4.3,9.6,9.6,9.6c5.3-0.1,9.6-4.4,9.6-9.6S19.3,7.4,14,7.4L14,7.4z"/>
				</g>
				<g>
					<g>
						<path d="M17,13.1l-3,6.2v-6.2h-2.7l-3.8,7.7h2.2l0.3-0.8h2v0.8h3.3l0.3-0.8h2v0.8h2v-7.7H17z M10.9,18.1l1.1-2.5v2.5H10.9z
							 M16.5,18.1l1.1-2.5v2.5H16.5z"/>
					</g>
				</g>
				<g>
					<g>
						<g>
							<g>
								<g>
									<path d="M34.8,17.9c0-1.8,0.9-2.9,2.8-2.9c1.8,0,2.8,1,2.8,2.9V18c0,1.8-0.9,2.9-2.8,2.9C35.7,20.9,34.8,19.8,34.8,17.9
										L34.8,17.9z M36.5,17.9c0,1.1,0.3,1.6,1,1.6s1-0.5,1-1.6s-0.3-1.6-1-1.6C36.9,16.4,36.5,16.9,36.5,17.9z"/>
									<path d="M45.1,17.9c0-1.8,0.9-2.9,2.8-2.9c1.8,0,2.8,1,2.8,2.9V18c0,1.8-0.9,2.9-2.8,2.9C46,20.9,45.1,19.8,45.1,17.9
										L45.1,17.9z M46.7,17.9c0,1.1,0.3,1.6,1,1.6c0.7,0,1-0.5,1-1.6s-0.3-1.6-1-1.6C47.1,16.4,46.7,16.9,46.7,17.9z"/>
									<path d="M57,15.2v5.5h-1.7v-5.5H57z"/>
									<path d="M59.6,15.2l0.1,0.5l0,0c0.4-0.4,0.9-0.7,1.7-0.7c0.5,0,1,0.2,1.4,0.5c0.3,0.4,0.5,0.9,0.5,1.6v3.5h-1.7v-3.3
										c0-0.3-0.1-0.5-0.1-0.7c-0.1-0.1-0.3-0.3-0.6-0.3c-0.5,0-0.8,0.2-1,0.5v3.7h-1.7V15L59.6,15.2L59.6,15.2z"/>
								</g>
							</g>
						</g>
						<circle cx="56.2" cy="13.7" r="1"/>
						<polygon points="32.4,20.7 34.1,20.7 33.7,13.1 33.7,13.1 32.2,13.1 30.2,17.5 30.2,17.5 28.2,13.1 26.7,13.1 26.7,13.1 
							26.3,20.7 28,20.7 28.2,16.6 28.2,16.6 29.6,19.9 30.8,19.9 32.2,16.6 32.2,16.6 						"/>
					</g>
					<g>
						<g>
							<path d="M67.9,15.2l-0.1,0.5l0,0c-0.4-0.4-0.9-0.7-1.5-0.7c-1.4,0-2.2,1.2-2.2,2.9V18c0,1.6,0.7,2.9,2.4,2.9
								c0.5,0,1-0.3,1.3-0.5l-0.1,0.5c-0.1,0.5-0.5,0.9-1.3,0.9c-0.5,0-1.2-0.1-1.6-0.4l-0.1,1.4c0.5,0.2,1.1,0.4,1.8,0.4
								c1.9,0,2.9-0.8,2.9-2.9v-5L67.9,15.2L67.9,15.2z M67.7,18.9c-0.3,0.3-0.6,0.5-1,0.5c-0.8,0-0.9-0.7-0.9-1.4
								c0-0.7,0.1-1.5,1-1.5c0.3,0,0.7,0.3,0.9,0.5V18.9z"/>
						</g>
					</g>
				</g>
				<path d="M44.5,19.4c-0.1,0.1-0.4,0.1-0.5,0.1c-0.3,0-0.7-0.1-0.7-0.9v-2.2h1.2l0.1-1.2h-1.2v-2l-1.6,0.1v1.8H41v1.2h0.8v2.4
					c0,1.3,0.4,2.1,2,2.1c0.3,0,0.7-0.1,1-0.1L44.5,19.4z"/>
			</g>
			<g>
				<path d="M101.8,21.1l-0.4-1.6h-2.8l-0.5,1.6h-2.6l2.8-8.7h3.1l2.8,8.7H101.8z M100.8,17.5l-0.3-1.4c-0.1-0.3-0.2-0.7-0.3-1.2
					s-0.2-0.9-0.2-1.1c-0.1,0.2-0.1,0.5-0.2,1s-0.3,1.4-0.7,2.7H100.8z"/>
				<path d="M109.9,21.1l-0.3-0.8h-0.1c-0.2,0.3-0.5,0.5-0.8,0.7s-0.8,0.2-1.2,0.2c-0.8,0-1.3-0.2-1.7-0.6c-0.4-0.4-0.6-1-0.6-1.8
					v-4.4h2.3v3.7c0,0.5,0.1,0.8,0.2,1c0.1,0.2,0.3,0.3,0.6,0.3c0.4,0,0.7-0.2,0.9-0.5c0.2-0.3,0.2-0.9,0.2-1.6v-3h2.3V21
					L109.9,21.1L109.9,21.1z"/>
				<path d="M116.4,19.3c0.3,0,0.7-0.1,1.1-0.2v1.7c-0.3,0.1-0.6,0.2-0.9,0.3s-0.6,0.1-1,0.1c-0.8,0-1.3-0.2-1.7-0.6
					c-0.3-0.4-0.5-1-0.5-1.7v-2.9h-0.8v-0.9l1-0.8l0.6-1.4h1.5v1.3h1.6v1.8h-1.6v2.6C115.8,19.1,116,19.3,116.4,19.3z"/>
				<path d="M125.1,17.7c0,1.1-0.3,2-0.9,2.6c-0.6,0.6-1.4,0.9-2.5,0.9c-1,0-1.9-0.3-2.4-0.9c-0.6-0.6-0.9-1.5-0.9-2.6
					s0.3-2,0.9-2.6s1.4-0.9,2.5-0.9c0.6,0,1.2,0.1,1.7,0.4c0.5,0.3,0.9,0.7,1.2,1.2C125,16.5,125.1,17.1,125.1,17.7z M120.8,17.7
					c0,0.6,0.1,1,0.2,1.3c0.2,0.3,0.4,0.5,0.8,0.5c0.3,0,0.6-0.2,0.8-0.5c0.2-0.3,0.2-0.8,0.2-1.3c0-0.5-0.1-1-0.2-1.3
					c-0.2-0.3-0.4-0.5-0.8-0.5c-0.3,0-0.6,0.2-0.8,0.4C120.9,16.8,120.8,17.2,120.8,17.7z"/>
				<path d="M133.6,14.3c-0.6,0-1,0.2-1.3,0.7c-0.3,0.5-0.5,1.1-0.5,1.9c0,1.7,0.6,2.5,1.9,2.5c0.4,0,0.8-0.1,1.1-0.2
					c0.3-0.1,0.7-0.2,1.1-0.4v2c-0.7,0.3-1.6,0.5-2.4,0.5c-1.3,0-2.3-0.4-3-1.2s-1-1.9-1-3.3c0-0.9,0.2-1.7,0.5-2.4
					c0.3-0.7,0.8-1.2,1.5-1.6c0.6-0.3,1.4-0.5,2.3-0.5c0.9,0,1.9,0.2,2.7,0.6l-0.7,1.9c-0.3-0.2-0.6-0.3-1-0.4
					C134.3,14.3,134,14.3,133.6,14.3z"/>
				<path d="M140.8,21.2c-1.1,0-2-0.3-2.6-0.9c-0.6-0.6-0.9-1.5-0.9-2.6c0-1.2,0.3-2,0.9-2.6c0.6-0.6,1.4-0.9,2.4-0.9
					s1.8,0.3,2.3,0.8c0.5,0.5,0.8,1.3,0.8,2.3v1h-4.1c0,0.3,0.2,0.7,0.4,0.9c0.2,0.2,0.6,0.3,1,0.3c0.4,0,0.8-0.1,1.1-0.1
					c0.3-0.1,0.7-0.2,1.1-0.4v1.7c-0.3,0.2-0.8,0.3-1.1,0.4C141.7,21.1,141.3,21.2,140.8,21.2z M140.6,15.9c-0.3,0-0.5,0.1-0.7,0.2
					c-0.2,0.2-0.3,0.5-0.3,0.8h2c0-0.3-0.1-0.6-0.3-0.8C141.2,16,140.9,15.9,140.6,15.9z"/>
				<path d="M149.2,21.1v-3.7c0-0.5-0.1-0.8-0.2-1c-0.1-0.2-0.3-0.3-0.6-0.3c-0.4,0-0.7,0.2-0.9,0.5s-0.2,0.9-0.2,1.6v3H145v-6.8
					h1.7l0.3,0.8h0.1c0.2-0.3,0.5-0.6,0.8-0.7c0.3-0.2,0.8-0.2,1.2-0.2c0.8,0,1.3,0.2,1.7,0.6c0.4,0.4,0.6,1,0.6,1.8V21L149.2,21.1
					L149.2,21.1z"/>
				<path d="M156.3,19.3c0.3,0,0.7-0.1,1.1-0.2v1.7c-0.3,0.1-0.6,0.2-0.9,0.3c-0.3,0.1-0.6,0.1-1,0.1c-0.8,0-1.3-0.2-1.7-0.6
					c-0.3-0.4-0.5-1-0.5-1.7v-2.9h-0.8v-0.9l1-0.8l0.6-1.4h1.5v1.3h1.6v1.8h-1.6v2.6C155.7,19.1,155.9,19.3,156.3,19.3z"/>
				<path d="M162.7,14.3c0.2,0,0.4,0,0.6,0.1h0.1l-0.2,2.2c-0.2-0.1-0.5-0.1-0.8-0.1c-0.5,0-0.9,0.1-1.1,0.3c-0.2,0.2-0.3,0.6-0.3,1
					V21h-2.3v-6.7h1.7l0.3,1h0.1c0.2-0.3,0.5-0.6,0.8-0.9C162,14.4,162.3,14.3,162.7,14.3z"/>
				<path d="M167.5,21.2c-1.1,0-2-0.3-2.6-0.9c-0.6-0.6-0.9-1.5-0.9-2.6c0-1.2,0.3-2,0.9-2.6s1.4-0.9,2.4-0.9c1,0,1.8,0.3,2.3,0.8
					c0.5,0.5,0.8,1.3,0.8,2.3v1h-4.1c0,0.3,0.2,0.7,0.4,0.9c0.2,0.2,0.6,0.3,1,0.3c0.4,0,0.8-0.1,1.1-0.1c0.3-0.1,0.7-0.2,1.1-0.4
					v1.7c-0.3,0.2-0.8,0.3-1.1,0.4C168.5,21.1,168.1,21.2,167.5,21.2z M167.4,15.9c-0.3,0-0.5,0.1-0.7,0.2c-0.2,0.2-0.3,0.5-0.3,0.8
					h2c0-0.3-0.1-0.6-0.3-0.8C167.9,16,167.7,15.9,167.4,15.9z"/>
			</g>
		</g>
	</g>
</g>
<rect x="0" y="0" class="st5" width="76" height="34.6"/>
<g>
	<path class="st7" d="M53.3,15.2l0.1,0.8l0,0c0.3-0.5,0.9-0.8,1.7-0.8v1.5c-0.8,0-1.2,0.1-1.6,0.4v3.5h-1.7v-5.5L53.3,15.2
		L53.3,15.2z"/>
</g>
<g>
	<path class="st8" d="M23.5,17c0,4.9-4,9-9,9s-9-4-9-9s4-9,9-9S23.5,12,23.5,17"/>
</g>
<g>
	<path class="st5" d="M14.6,8c4.9,0,9,4,9,9s-4,9-9,9s-9-4-9-9C5.6,12,9.6,8,14.6,8 M14.6,7.4C9.3,7.4,5,11.7,5,17s4.3,9.6,9.6,9.6
		s9.6-4.3,9.6-9.6C24.1,11.7,19.8,7.4,14.6,7.4"/>
</g>
<g>
	<path class="st7" d="M17.5,13.1l-3,6.1v-6.1h-2.7l-3.7,7.7h2.2l0.3-0.8h1.9v0.8h3.4l0.3-0.8h1.9v0.8h2v-7.7
		C20.1,13.1,17.5,13.1,17.5,13.1z M11.4,18.1l1.1-2.5v2.5H11.4z M17.1,18.1l1.1-2.5v2.5H17.1z"/>
</g>
<g>
	<path class="st7" d="M35.3,17.9c0-1.9,0.9-2.9,2.8-2.9c1.9,0,2.8,1.1,2.8,2.9V18c0,1.9-0.9,2.9-2.8,2.9S35.3,19.8,35.3,17.9
		L35.3,17.9z M37.1,18c0,1.1,0.3,1.5,1,1.5s1-0.5,1-1.5c0-1.1-0.3-1.6-1-1.6C37.4,16.4,37.1,16.9,37.1,18"/>
</g>
<g>
	<path class="st7" d="M45.5,17.9c0-1.9,0.9-2.9,2.8-2.9c1.9,0,2.8,1.1,2.8,2.9V18c0,1.9-0.9,2.9-2.8,2.9S45.5,19.8,45.5,17.9
		L45.5,17.9z M47.2,18c0,1.1,0.3,1.5,1,1.5s1-0.5,1-1.5c0-1.1-0.3-1.6-1-1.6C47.6,16.4,47.2,16.9,47.2,18"/>
</g>
<g>
	<rect x="55.8" y="15.2" class="st7" width="1.7" height="5.5"/>
</g>
<g>
	<path class="st7" d="M60,15.2v0.5l0,0c0.4-0.4,0.9-0.7,1.7-0.7c0.6,0,1.1,0.2,1.3,0.5c0.3,0.4,0.5,0.9,0.5,1.7v3.5H62v-3.3
		c0-0.3,0-0.5-0.1-0.7c-0.1-0.1-0.3-0.3-0.6-0.3c-0.4,0-0.8,0.2-1.1,0.5v3.7h-1.7v-5.4C58.5,15.2,60,15.2,60,15.2z"/>
</g>
<g>
	<path class="st7" d="M57.6,13.7c0,0.5-0.4,0.9-0.9,0.9s-0.9-0.4-0.9-0.9s0.4-0.9,0.9-0.9C57.2,12.7,57.6,13.2,57.6,13.7"/>
</g>
<g>
	<polygon class="st7" points="32.9,20.7 34.6,20.7 34.2,13.1 34.2,13.1 32.7,13.1 30.7,17.5 30.7,17.5 28.7,13.1 27.2,13.1 
		27.2,13.1 26.8,20.7 28.5,20.7 28.7,16.6 28.7,16.6 30.1,19.9 31.3,19.9 32.7,16.6 32.7,16.6 	"/>
</g>
<g>
	<path class="st7" d="M68.3,15.2v0.5l0,0C68,15.3,67.4,15,66.8,15c-1.4,0-2.2,1.2-2.2,2.9l0,0c0,1.5,0.6,2.9,2.3,2.9
		c0.6,0,1.1-0.3,1.3-0.5v0.5c-0.1,0.5-0.5,0.9-1.3,0.9c-0.5,0-1.2-0.1-1.6-0.4v1.4c0.6,0.2,1.1,0.3,1.7,0.3c1.9,0,3-0.8,3-3v-4.9
		h-1.7V15.2z M68.1,19c-0.3,0.3-0.6,0.4-1,0.4c-0.7,0-0.9-0.7-0.9-1.4c0-0.6,0.1-1.5,1-1.5c0.3,0,0.7,0.3,0.9,0.5V19z"/>
</g>
<g>
	<path class="st7" d="M44.9,19.4c-0.2,0-0.4,0.1-0.5,0.1c-0.3,0-0.7,0-0.7-0.9v-2.2h1.2v-1.2h-1.2v-1.9L42,13.4v1.8h-0.7v1.2h0.8
		v2.4c0,1.3,0.4,2.1,1.9,2.1c0.3,0,0.7,0,0.9-0.1V19.4z"/>
</g>
</svg>
